PathFileType  4	(X/Y/Z) C:\Users\antoi\Documents\MyRepositories\mobilecap\ResultsAnalysis
DataRate	CameraRate	NumFrames	NumMarkers	Units	OrigDataRate	OrigDataStartFrame	OrigNumFrames
100.0	100.0	4	51	mm	100.0	63	250
Frame#	Time	r_knee			r_shank_antsup			r_ankle			r_calc			r_5meta			r_toe			L_knee			L_shank_antsup			L_ankle			L_calc			L_5meta			L_toe			r_sh2			r_sh3			r_sh4			L_sh2			L_sh3			r_thigh1			r_thigh2			r_thigh3			r_thigh4			r_thigh5			L_thigh1			L_thigh2			L_thigh3			L_thigh4			r.ASIS			r.PSIS			L.ASIS			L.PSIS			C7			R_Shoulder			L_Shoulder			R_Sternum			L_Sternum			R_humerus			R_elbow_med			R_elbow_lat			R_forearm			R_wrist_radius			R_wrist_ulna			L_humerus			L_elbow_med			L_elbow_lat			L_forearm			L_wrist_radius			L_wrist_ulna			R_HJC			L_HJC			R_HJC_reg			L_HJC_reg			
		X1	Y1	Z1	X2	Y2	Z2	X3	Y3	Z3	X4	Y4	Z4	X5	Y5	Z5	X6	Y6	Z6	X7	Y7	Z7	X8	Y8	Z8	X9	Y9	Z9	X10	Y10	Z10	X11	Y11	Z11	X12	Y12	Z12	X13	Y13	Z13	X14	Y14	Z14	X15	Y15	Z15	X16	Y16	Z16	X17	Y17	Z17	X18	Y18	Z18	X19	Y19	Z19	X20	Y20	Z20	X21	Y21	Z21	X22	Y22	Z22	X23	Y23	Z23	X24	Y24	Z24	X25	Y25	Z25	X26	Y26	Z26	X27	Y27	Z27	X28	Y28	Z28	X29	Y29	Z29	X30	Y30	Z30	X31	Y31	Z31	X32	Y32	Z32	X33	Y33	Z33	X34	Y34	Z34	X35	Y35	Z35	X36	Y36	Z36	X37	Y37	Z37	X38	Y38	Z38	X39	Y39	Z39	X40	Y40	Z40	X41	Y41	Z41	X42	Y42	Z42	X43	Y43	Z43	X44	Y44	Z44	X45	Y45	Z45	X46	Y46	Z46	X47	Y47	Z47	X48	Y48	Z48	X49	Y49	Z49	X50	Y50	Z50	X51	Y51	Z51	

63	0.62000000	-1068.53531	762.05005	-448.74713	-1060.71357	656.87082	-457.68328	-1267.16679	403.08082	-464.26996	-1333.00090	366.11513	-511.24085	-1152.64934	350.31801	-422.56087	-1118.93027	378.35124	-476.80067	-1046.42426	768.18791	-737.02945	-1032.55557	670.11217	-719.90207	-1248.23236	412.13186	-716.59786	-1326.69529	372.69232	-665.92155	-1150.81889	350.46670	-753.07693	-1102.77650	372.21696	-696.80334	-1117.50298	558.12715	-459.71300	-1116.75767	686.75135	-416.42371	-1178.96373	589.63326	-413.21261	-1095.72413	719.43327	-762.98021	-1159.21416	615.30013	-768.18997	-1087.04644	1040.84262	-413.23232	-1052.37309	937.20439	-434.50962	-1094.35570	892.59265	-403.91969	-1192.95647	999.50729	-398.70387	-1149.48303	893.14445	-419.01531	-1055.72616	1021.32088	-748.77772	-1002.05307	893.99909	-725.12522	-1148.09732	977.03152	-788.45275	-1098.54856	856.78076	-758.71026	-1073.86799	1189.30813	-461.62149	-1255.50458	1290.54957	-544.06262	-1073.01737	1189.37599	-714.21825	-1251.99774	1288.82754	-640.57342	-988.56325	1683.16643	-571.42005	-938.39803	1607.17684	-404.55694	-907.65551	1606.78745	-714.25538	-918.55349	1555.65721	-542.08015	-912.02771	1557.95549	-579.43426	-959.55178	1470.42741	-354.80913	-1120.04304	1322.89620	-378.53312	-1100.25138	1325.85234	-316.58873	-1067.07597	1247.30842	-298.45433	-1051.86577	1079.40415	-332.92943	-1088.94191	1085.45887	-299.83083	-933.40555	1465.61333	-766.67991	-1099.82457	1331.63380	-753.33582	-1062.52373	1325.96989	-819.81582	-1046.71832	1254.46320	-830.99906	-1088.92299	1080.11647	-826.58181	-1123.33161	1103.53593	-857.49064	-1181.98715	1136.03198	-488.01295	-1178.28839	1135.63720	-677.53877	-1170.76695	1144.08639	-499.91739	-1164.71365	1141.11392	-666.49614	
64	0.63000000	-1063.96177	759.70569	-448.71597	-1056.96364	654.46698	-457.69141	-1266.70205	403.25134	-464.24962	-1332.90689	366.33493	-511.17436	-1152.48749	350.28216	-422.37336	-1118.82127	378.12781	-476.65570	-1041.06049	766.36217	-738.08634	-1027.94200	667.93125	-720.56992	-1247.41715	412.93911	-716.13177	-1326.11561	374.31479	-665.30500	-1150.78434	350.47015	-753.04477	-1102.36473	371.92983	-696.88110	-1114.96945	556.40937	-460.00050	-1112.65325	684.97675	-416.49378	-1176.20460	588.63152	-413.40354	-1090.66648	717.94145	-763.07105	-1155.54154	614.76742	-768.20817	-1086.33360	1037.87827	-412.37760	-1050.22938	935.10895	-433.96121	-1091.67254	889.43560	-403.61463	-1191.41437	995.56056	-398.94834	-1146.62479	889.69299	-419.32451	-1054.00560	1019.25942	-749.80118	-998.27274	892.82652	-726.41360	-1145.49234	973.72999	-789.55863	-1094.47645	854.11749	-759.33080	-1073.23231	1184.97339	-461.94333	-1254.08599	1287.24559	-544.28670	-1071.53346	1184.91515	-713.97215	-1250.45199	1285.39375	-640.77323	-983.46439	1677.40160	-571.28290	-933.70347	1600.50617	-404.53570	-902.59206	1599.84392	-713.49364	-914.55475	1549.29885	-541.89385	-907.38482	1551.60013	-576.47735	-952.19670	1463.36995	-355.64622	-1108.44950	1310.95563	-378.73320	-1088.09397	1314.47349	-316.67359	-1051.91158	1237.06349	-299.32369	-1030.70173	1070.46405	-335.68607	-1067.54565	1074.45299	-302.20952	-925.66909	1458.37757	-764.83753	-1088.26873	1320.12069	-752.48545	-1049.88359	1314.68675	-818.23119	-1031.32472	1243.28696	-827.68875	-1066.79061	1067.65093	-820.68742	-1101.43215	1089.10065	-852.18754	-1181.48253	1132.24647	-488.17977	-1177.38607	1131.83445	-677.69710	-1170.05430	1140.55839	-500.23199	-1163.79502	1137.36872	-666.42723	
65	0.64000000	-1059.70492	757.18561	-449.07269	-1053.10884	652.16112	-457.56373	-1266.22126	403.37758	-464.28349	-1332.75824	366.63171	-511.21584	-1152.42052	350.33074	-422.24876	-1118.68622	377.86881	-476.49410	-1035.78473	764.24929	-739.02764	-1023.35153	665.57791	-721.21464	-1246.62924	413.74090	-715.58998	-1325.53821	376.01345	-664.71766	-1150.77290	350.45467	-752.99141	-1101.95376	371.63853	-697.08591	-1112.46461	554.59272	-460.24761	-1108.36332	683.33179	-416.51612	-1173.50722	587.70210	-413.16476	-1085.57007	716.41165	-763.42192	-1151.82980	614.23111	-768.41763	-1085.37477	1034.88680	-411.66866	-1047.95909	932.80948	-433.70057	-1088.79846	886.31206	-403.53746	-1189.75172	991.40261	-399.30168	-1143.70206	886.28531	-419.36859	-1051.71353	1016.96946	-750.68790	-994.42922	891.50072	-727.84748	-1143.69321	970.45633	-790.36766	-1090.42960	851.20205	-759.70792	-1072.48840	1180.48367	-461.99657	-1252.62801	1283.73120	-544.55240	-1070.10604	1180.29981	-713.66322	-1248.74770	1281.78578	-641.08565	-978.55506	1671.56075	-571.20332	-929.44115	1593.69821	-404.64884	-897.84879	1592.89013	-712.69494	-910.63796	1542.97714	-541.64910	-904.34771	1545.35778	-576.88325	-944.67095	1456.54165	-356.43078	-1095.85757	1298.66171	-379.43720	-1074.96420	1302.96199	-316.84690	-1035.60339	1226.87474	-300.47133	-1007.94982	1062.01964	-338.52528	-1044.36487	1063.84283	-304.68815	-917.83816	1451.40017	-763.31311	-1075.80046	1307.94406	-750.82937	-1036.52610	1303.35267	-816.83033	-1014.64851	1232.25374	-824.63015	-1042.62922	1055.48361	-814.27517	-1077.47471	1074.90981	-846.81053	-1180.94908	1128.32955	-488.27211	-1176.39525	1127.82926	-677.77897	-1169.39957	1136.71027	-500.44728	-1162.73040	1133.36636	-666.38735	
66	0.65000000	-1055.81741	754.39732	-449.97101	-1049.24822	649.72998	-457.75381	-1265.78757	403.60675	-464.41268	-1332.57094	366.91704	-511.40333	-1152.34656	350.30523	-422.14616	-1118.50040	377.62936	-476.37173	-1030.64143	762.05155	-739.75689	-1018.56190	663.10886	-721.77056	-1245.76896	414.71384	-715.17269	-1324.93756	377.75985	-664.15232	-1150.75520	350.42241	-752.96998	-1101.46161	371.32411	-697.37025	-1110.00862	552.79155	-460.23342	-1103.97174	681.63214	-416.70289	-1170.38901	586.73733	-413.12899	-1080.40762	714.91365	-764.02852	-1148.12588	613.72641	-768.71140	-1083.97131	1031.86398	-411.50020	-1045.46559	930.42382	-433.52776	-1085.74809	883.34710	-403.84859	-1188.00851	987.34133	-399.48988	-1140.73737	882.75374	-419.39001	-1049.20273	1014.41429	-751.72519	-990.66889	889.87952	-729.16990	-1141.99759	966.78534	-790.39015	-1086.42810	848.14835	-759.97917	-1071.78177	1175.88336	-461.83070	-1251.10981	1280.03446	-544.85299	-1069.17620	1175.51312	-713.71401	-1246.94700	1277.97084	-641.36359	-973.88988	1665.68284	-571.22235	-925.47283	1586.88176	-404.87008	-893.46005	1585.96296	-711.82559	-906.82289	1536.65214	-541.37965	-902.60271	1539.16690	-581.31650	-936.97484	1449.91103	-357.13399	-1082.48055	1286.45704	-379.77850	-1060.92886	1291.48482	-317.04975	-1017.94968	1217.04342	-301.94025	-983.43503	1054.18510	-341.77593	-1019.47375	1053.88758	-307.46290	-909.98469	1444.74061	-762.17966	-1062.38610	1295.20052	-748.20567	-1022.42000	1292.19878	-815.94143	-996.61239	1221.50062	-821.70045	-1016.31115	1044.15208	-807.26755	-1051.59749	1060.82584	-840.82154	-1180.46122	1124.30947	-488.33042	-1175.66063	1123.62731	-677.83097	-1169.06853	1132.55721	-500.57148	-1161.90601	1129.00598	-666.63127	
